<svg xmlns="http://www.w3.org/2000/svg" width="375" height="41.001" viewBox="0 0 375 41.001">
  <g id="Intersection_2" data-name="Intersection 2" transform="translate(-3817 -306)" fill="#728591">
    <path d="M 4191.5 346.5003967285156 L 3817.499755859375 346.5003967285156 L 3817.499755859375 336.0128479003906 C 3844.91796875 326.4552307128906 3873.6728515625 319.107421875 3902.977294921875 314.1703796386719 C 3917.93896484375 311.6497802734375 3933.26318359375 309.7252807617188 3948.52392578125 308.4503479003906 C 3964.016845703125 307.1560974121094 3979.82177734375 306.4998474121094 3995.500244140625 306.4998474121094 C 4012.91064453125 306.4998474121094 4030.446044921875 307.3087463378906 4047.61962890625 308.904052734375 C 4064.511474609375 310.4732055664063 4081.441650390625 312.8391418457031 4097.93994140625 315.9360961914063 C 4130.248046875 322.0007934570313 4161.72412109375 330.9967041015625 4191.5 342.6752319335938 L 4191.5 346.5003967285156 Z" stroke="none"/>
    <path d="M 4191 346.0003967285156 L 4191 343.016357421875 C 4161.3466796875 331.40966796875 4130.01025390625 322.4649047851563 4097.84765625 316.4275512695313 C 4081.364501953125 313.3334045410156 4064.449951171875 310.9696350097656 4047.573486328125 309.4019470214844 C 4030.4150390625 307.8080444335938 4012.895263671875 306.9998474121094 3995.500244140625 306.9998474121094 C 3979.835693359375 306.9998474121094 3964.044677734375 307.6554870605469 3948.565673828125 308.9486389160156 C 3933.318603515625 310.2223815917969 3918.00830078125 312.1451416015625 3903.060302734375 314.6634521484375 C 3873.90380859375 319.5755310058594 3845.289794921875 326.8770751953125 3817.999755859375 336.3682556152344 L 3817.999755859375 346.0003967285156 L 4191 346.0003967285156 M 4192 347.0003967285156 L 3816.999755859375 347.0003967285156 L 3816.999755859375 335.6578063964844 C 3871.583984375 316.5872497558594 3931.967041015625 305.9998474121094 3995.500244140625 305.9998474121094 C 4066.102294921875 305.9998474121094 4132.81689453125 319.0745849609375 4192 342.3343811035156 L 4192 347.0003967285156 Z" stroke="none" fill="#728591"/>
  </g>
</svg>
