<svg xmlns="http://www.w3.org/2000/svg" width="375" height="84" viewBox="0 0 375 84">
  <g id="Intersection_2" data-name="Intersection 2" transform="translate(-4029 -854)">
    <path d="M 4061.5 937.4998168945313 C 4050.854736328125 937.4998168945313 4040.091552734375 937.291748046875 4029.5 936.8814086914063 L 4029.5 854.49951171875 L 4403.50048828125 854.49951171875 L 4403.50048828125 854.8974609375 C 4381.0068359375 867.6959838867188 4356.54296875 879.2897338867188 4330.78271484375 889.3592529296875 C 4304.650390625 899.5744018554688 4276.89208984375 908.3341064453125 4248.279296875 915.3952026367188 C 4219.1396484375 922.5862426757813 4188.748046875 928.1044311523438 4157.94921875 931.7965087890625 C 4126.38037109375 935.5809936523438 4093.93017578125 937.4998168945313 4061.5 937.4998168945313 Z" stroke="none"/>
    <path d="M 4061.5 936.9998168945313 C 4093.910400390625 936.9998168945313 4126.34033203125 935.0821533203125 4157.8896484375 931.3001098632813 C 4188.66845703125 927.6104125976563 4219.03955078125 922.0958862304688 4248.1591796875 914.9097290039063 C 4276.7509765625 907.8539428710938 4304.48828125 899.100830078125 4330.60107421875 888.8935546875 C 4355.9775390625 878.9739379882813 4380.095703125 867.5734252929688 4402.3076171875 854.99951171875 L 4030 854.99951171875 L 4030 936.4002075195313 C 4040.43017578125 936.7981567382813 4051.022216796875 936.9998168945313 4061.5 936.9998168945313 M 4061.5 937.9998168945313 C 4050.58544921875 937.9998168945313 4039.7431640625 937.784912109375 4029 937.3622436523438 L 4029 853.99951171875 L 4404.00048828125 853.99951171875 L 4404.00048828125 855.1881103515625 C 4313.7314453125 906.6192016601563 4193.4990234375 937.9998168945313 4061.5 937.9998168945313 Z" stroke="none"/>
  </g>
</svg>
