<svg xmlns="http://www.w3.org/2000/svg" width="375" height="86" viewBox="0 0 375 86">
  <g id="Intersection_2" data-name="Intersection 2" transform="translate(-4029 -306)">
    <path d="M 4403.50048828125 391.5 L 4029.5 391.5 L 4029.5 307.1182861328125 C 4040.0908203125 306.7078857421875 4050.85400390625 306.4998779296875 4061.5 306.4998779296875 C 4093.93017578125 306.4998779296875 4126.38037109375 308.4187316894531 4157.94921875 312.203125 C 4188.748046875 315.8952941894531 4219.1396484375 321.4134826660156 4248.279296875 328.6044921875 C 4276.89208984375 335.66552734375 4304.650390625 344.42529296875 4330.78271484375 354.640380859375 C 4356.54296875 364.7099609375 4381.0068359375 376.3036804199219 4403.50048828125 389.1022338867188 L 4403.50048828125 391.5 Z" stroke="none"/>
    <path d="M 4403.00048828125 391 L 4403.00048828125 389.3930969238281 C 4380.59716796875 376.6632385253906 4356.2421875 365.1293029785156 4330.60107421875 355.1060791015625 C 4304.48828125 344.8988342285156 4276.7509765625 336.145751953125 4248.1591796875 329.0899353027344 C 4219.03955078125 321.9037780761719 4188.66845703125 316.3892822265625 4157.8896484375 312.6995849609375 C 4126.34033203125 308.9175415039063 4093.910400390625 306.9998779296875 4061.5 306.9998779296875 C 4051.021240234375 306.9998779296875 4040.429443359375 307.2015380859375 4030 307.5994567871094 L 4030 391 L 4403.00048828125 391 M 4404.00048828125 392 L 4029 392 L 4029 306.637451171875 C 4039.7431640625 306.2147521972656 4050.58544921875 305.9998779296875 4061.5 305.9998779296875 C 4193.4990234375 305.9998779296875 4313.7314453125 337.3804321289063 4404.00048828125 388.8115539550781 L 4404.00048828125 392 Z" stroke="none"/>
  </g>
</svg>
