<svg xmlns="http://www.w3.org/2000/svg" width="375" height="25.999" viewBox="0 0 375 25.999">
  <g id="Intersection_2" data-name="Intersection 2" transform="translate(-3932 -933)" fill="#435c6d">
    <path d="M 4097.5 958.4996948242188 C 4041.17333984375 958.4996948242188 3985.6591796875 953.3426513671875 3932.5 943.1729736328125 L 3932.5 933.5004272460938 L 4306.38134765625 933.5004272460938 C 4274.03173828125 941.6030883789063 4240.2158203125 947.82861328125 4205.85693359375 952.0068359375 C 4170.4287109375 956.315185546875 4133.97216796875 958.4996948242188 4097.5 958.4996948242188 Z" stroke="none"/>
    <path d="M 3933 934.0004272460938 L 3933 942.7594604492188 C 3986.0068359375 952.8726806640625 4041.34619140625 957.9996948242188 4097.5 957.9996948242188 C 4133.9521484375 957.9996948242188 4170.388671875 955.8164672851563 4205.79638671875 951.5105590820313 C 4238.7275390625 947.505859375 4271.16357421875 941.6185302734375 4302.2822265625 934.0004272460938 L 3933 934.0004272460938 M 3932 933.0004272460938 L 4307 933.0004272460938 L 4307 933.8607177734375 C 4242.525390625 950.055419921875 4171.75390625 958.9996948242188 4097.5 958.9996948242188 C 4039.78955078125 958.9996948242188 3984.18359375 953.5968627929688 3932 943.5863037109375 L 3932 933.0004272460938 Z" stroke="none" fill="#435c6d"/>
  </g>
</svg>
