<svg xmlns="http://www.w3.org/2000/svg" width="375" height="112" viewBox="0 0 375 112">
  <defs>
    <style>
      .cls-1, .cls-3 {
        fill: #435c6d;
      }

      .cls-2, .cls-3 {
        stroke: none;
      }
    </style>
  </defs>
  <g id="Intersection_1" data-name="Intersection 1" class="cls-1" transform="translate(-3678 -306)">
    <path class="cls-2" d="M 4052.5 417.4996948242188 L 3678.499755859375 417.4996948242188 L 3678.499755859375 417.4516906738281 C 3698.5 400.3866577148438 3720.603271484375 384.8746032714844 3744.19775390625 371.3459167480469 C 3768.080078125 357.6521911621094 3793.6787109375 345.8829650878906 3820.28271484375 336.3651123046875 C 3847.380615234375 326.6705627441406 3875.776611328125 319.2223205566406 3904.682373046875 314.2272644042969 C 3919.37939453125 311.6875610351563 3934.42724609375 309.7485961914063 3949.407470703125 308.4642944335938 C 3964.612548828125 307.1607666015625 3980.120361328125 306.4998168945313 3995.500244140625 306.4998168945313 C 4014.5498046875 306.4998168945313 4033.724609375 307.5133361816406 4052.5 309.512451171875 L 4052.5 417.4996948242188 Z"/>
    <path class="cls-3" d="M 4052 416.9996948242188 L 4052 309.9622497558594 C 4033.384765625 307.9963684082031 4014.381103515625 306.9998168945313 3995.500244140625 306.9998168945313 C 3980.134521484375 306.9998168945313 3964.64111328125 307.66015625 3949.4501953125 308.9624938964844 C 3934.484130859375 310.2455444335938 3919.45068359375 312.1826477050781 3904.767578125 314.719970703125 C 3875.89013671875 319.7101135253906 3847.52197265625 327.1509704589844 3820.451171875 336.8358459472656 C 3793.874755859375 346.3438110351563 3768.30322265625 358.1006164550781 3744.446533203125 371.7796630859375 C 3721.2626953125 385.0729675292969 3699.521484375 400.2820434570313 3679.802978515625 416.9996948242188 L 4052 416.9996948242188 M 4053 417.9996948242188 L 3677.999755859375 417.9996948242188 L 3677.999755859375 417.2211608886719 C 3758.2783203125 348.6447143554688 3870.859619140625 305.9998168945313 3995.500244140625 305.9998168945313 C 4014.981201171875 305.9998168945313 4034.185791015625 307.04345703125 4053 309.0630493164063 L 4053 417.9996948242188 Z"/>
  </g>
</svg>
