<?xml version="1.0" standalone="no"?>
<!DOCTYPE svg PUBLIC "-//W3C//DTD SVG 20010904//EN"
 "http://www.w3.org/TR/2001/REC-SVG-20010904/DTD/svg10.dtd">
<svg version="1.0" xmlns="http://www.w3.org/2000/svg"
 width="1024.000000pt" height="1024.000000pt" viewBox="0 0 1024.000000 1024.000000"
 preserveAspectRatio="xMidYMid meet">

<g transform="translate(0.000000,1024.000000) scale(0.100000,-0.100000)"
fill="#000000" stroke="none">
<path d="M3520 8480 l0 -160 -160 0 -160 0 0 -160 0 -160 -160 0 -160 0 0
-160 0 -160 -160 0 -160 0 0 -1920 0 -1920 160 0 160 0 0 -160 0 -160 160 0
160 0 0 -160 0 -160 160 0 160 0 0 -160 0 -160 160 0 160 0 0 -160 0 -160 160
0 160 0 0 -160 0 -160 320 0 320 0 0 -160 0 -160 320 0 320 0 0 160 0 160 320
0 320 0 0 160 0 160 160 0 160 0 0 160 0 160 160 0 160 0 0 160 0 160 160 0
160 0 0 160 0 160 160 0 160 0 0 160 0 160 160 0 160 0 0 1920 0 1920 -160 0
-160 0 0 160 0 160 -160 0 -160 0 0 160 0 160 -160 0 -160 0 0 160 0 160
-1600 0 -1600 0 0 -160z m2880 -320 l0 -160 320 0 320 0 0 -160 0 -160 160 0
160 0 0 -320 0 -320 -160 0 -160 0 0 -160 0 -160 160 0 160 0 0 -1280 0 -1280
-160 0 -160 0 0 -160 0 -160 -160 0 -160 0 0 -160 0 -160 -160 0 -160 0 0
-160 0 -160 -160 0 -160 0 0 -160 0 -160 -160 0 -160 0 0 160 0 160 -160 0
-160 0 0 160 0 160 -320 0 -320 0 0 -160 0 -160 -160 0 -160 0 0 -160 0 -160
-160 0 -160 0 0 160 0 160 -160 0 -160 0 0 160 0 160 -160 0 -160 0 0 160 0
160 -160 0 -160 0 0 160 0 160 -160 0 -160 0 0 1280 0 1280 160 0 160 0 0 160
0 160 -160 0 -160 0 0 320 0 320 160 0 160 0 0 160 0 160 320 0 320 0 0 160 0
160 1280 0 1280 0 0 -160z"/>
<path d="M4160 7520 l0 -160 -480 0 -480 0 0 -160 0 -160 640 0 640 0 0 -160
0 -160 -480 0 -480 0 0 -160 0 -160 -160 0 -160 0 0 -160 0 -160 640 0 640 0
0 -320 0 -320 -160 0 -160 0 0 -320 0 -320 160 0 160 0 0 -320 0 -320 -320 0
-320 0 0 160 0 160 -160 0 -160 0 0 160 0 160 -160 0 -160 0 0 -320 0 -320
160 0 160 0 0 -160 0 -160 160 0 160 0 0 -160 0 -160 320 0 320 0 0 160 0 160
640 0 640 0 0 -160 0 -160 320 0 320 0 0 160 0 160 160 0 160 0 0 160 0 160
160 0 160 0 0 320 0 320 -160 0 -160 0 0 -160 0 -160 -160 0 -160 0 0 -160 0
-160 -320 0 -320 0 0 320 0 320 160 0 160 0 0 320 0 320 -320 0 -320 0 0 -320
0 -320 -320 0 -320 0 0 320 0 320 160 0 160 0 0 800 0 800 -160 0 -160 0 0
160 0 160 -160 0 -160 0 0 160 0 160 -160 0 -160 0 0 -160z"/>
<path d="M5760 7520 l0 -160 -160 0 -160 0 0 -640 0 -640 800 0 800 0 0 160 0
160 -160 0 -160 0 0 160 0 160 -480 0 -480 0 0 160 0 160 640 0 640 0 0 160 0
160 -480 0 -480 0 0 160 0 160 -160 0 -160 0 0 -160z"/>
</g>
</svg>
