<?xml version="1.0" standalone="no"?>
<!DOCTYPE svg PUBLIC "-//W3C//DTD SVG 20010904//EN"
 "http://www.w3.org/TR/2001/REC-SVG-20010904/DTD/svg10.dtd">
<svg version="1.0" xmlns="http://www.w3.org/2000/svg"
 width="512.000000pt" height="512.000000pt" viewBox="0 0 512.000000 512.000000"
 preserveAspectRatio="xMidYMid meet">

<g transform="translate(0.000000,512.000000) scale(0.100000,-0.100000)"
fill="#000000" stroke="none">
<path d="M2370 5110 c-616 -48 -1178 -307 -1615 -745 -397 -396 -642 -885
-726 -1445 -31 -205 -31 -515 0 -720 84 -560 329 -1049 726 -1445 396 -397
885 -642 1445 -726 205 -31 515 -31 720 0 560 84 1049 329 1445 726 397 396
643 885 726 1445 28 187 30 494 5 680 -63 472 -252 920 -537 1275 -145 181
-395 416 -458 430 -92 20 -181 -49 -181 -140 0 -57 25 -97 100 -159 279 -233
521 -574 655 -925 139 -367 181 -830 109 -1210 -204 -1074 -1138 -1851 -2224
-1851 -942 0 -1788 589 -2118 1475 -435 1165 162 2467 1333 2903 238 89 513
142 738 142 96 0 148 25 178 86 34 71 15 136 -53 187 -32 24 -116 29 -268 17z"/>
<path d="M1863 4300 c-25 -11 -51 -33 -63 -52 -19 -32 -20 -49 -20 -770 l0
-736 -254 -4 c-280 -3 -279 -3 -330 -72 -31 -41 -29 -120 4 -166 73 -102 1227
-1620 1253 -1648 60 -63 154 -63 214 0 26 28 1180 1546 1253 1648 33 46 35
125 4 166 -51 69 -50 69 -330 72 l-254 4 0 736 c0 721 -1 738 -20 770 -12 19
-38 41 -63 52 -40 19 -72 20 -697 20 -625 0 -657 -1 -697 -20z m1187 -1017 c0
-714 1 -739 20 -770 38 -62 56 -67 251 -73 l178 -5 -467 -617 c-257 -339 -469
-617 -472 -617 -3 0 -215 278 -472 617 l-467 617 178 5 c195 6 213 11 251 73
19 31 20 56 20 770 l0 737 490 0 490 0 0 -737z"/>
</g>
</svg>
