<?xml version="1.0" encoding="utf-8"?>
<!-- Generator: Adobe Illustrator 22.1.0, SVG Export Plug-In . SVG Version: 6.00 Build 0)  -->
<svg version="1.1" id="Calque_1" xmlns="http://www.w3.org/2000/svg" xmlns:xlink="http://www.w3.org/1999/xlink" x="0px" y="0px"
	 viewBox="0 0 1000 800" style="enable-background:new 0 0 1000 800;" xml:space="preserve">
<style type="text/css">
	.st0{fill:#B7D7E5;}
	.st1{fill:none;stroke:#FF0011;stroke-width:40;stroke-miterlimit:10;}
	.st2{fill:none;stroke:#FF0011;stroke-width:80;stroke-miterlimit:10;}
	.st3{stroke:#000000;stroke-miterlimit:10;}
</style>
<g>
	<path class="st0" d="M474.6,81.3L174.1,601.8c-9,15.7,2.3,35.3,20.4,35.3h601c18.1,0,29.4-19.6,20.4-35.3L515.3,81.3
		C506.2,65.6,483.6,65.6,474.6,81.3z"/>
	<path class="st1" d="M474.6,81.3L174.1,601.8c-9,15.7,2.3,35.3,20.4,35.3h601c18.1,0,29.4-19.6,20.4-35.3L515.3,81.3
		C506.2,65.6,483.6,65.6,474.6,81.3z"/>
	<path class="st0" d="M474.6,81.3L174.1,601.8c-9,15.7,2.3,35.3,20.4,35.3h601c18.1,0,29.4-19.6,20.4-35.3L515.3,81.3
		C506.2,65.6,483.6,65.6,474.6,81.3z"/>
	<path class="st0" d="M474.6,81.3L174.1,601.8c-9,15.7,2.3,35.3,20.4,35.3h601c18.1,0,29.4-19.6,20.4-35.3L515.3,81.3
		C506.2,65.6,483.6,65.6,474.6,81.3z"/>
	<path class="st0" d="M474.6,81.3L174.1,601.8c-9,15.7,2.3,35.3,20.4,35.3h601c18.1,0,29.4-19.6,20.4-35.3L515.3,81.3
		C506.2,65.6,483.6,65.6,474.6,81.3z"/>
	<path class="st1" d="M474.6,81.3L174.1,601.8c-9,15.7,2.3,35.3,20.4,35.3h601c18.1,0,29.4-19.6,20.4-35.3L515.3,81.3
		C506.2,65.6,483.6,65.6,474.6,81.3z"/>
	<path class="st0" d="M474.6,81.3L174.1,601.8c-9,15.7,2.3,35.3,20.4,35.3h601c18.1,0,29.4-19.6,20.4-35.3L515.3,81.3
		C506.2,65.6,483.6,65.6,474.6,81.3z"/>
	<path class="st0" d="M474.6,81.3L174.1,601.8c-9,15.7,2.3,35.3,20.4,35.3h601c18.1,0,29.4-19.6,20.4-35.3L515.3,81.3
		C506.2,65.6,483.6,65.6,474.6,81.3z"/>
	<path class="st2" d="M474.6,81.3L174.1,601.8c-9,15.7,2.3,35.3,20.4,35.3h601c18.1,0,29.4-19.6,20.4-35.3L515.3,81.3
		C506.2,65.6,483.6,65.6,474.6,81.3z"/>
	<path class="st0" d="M474.6,81.3L174.1,601.8c-9,15.7,2.3,35.3,20.4,35.3h601c18.1,0,29.4-19.6,20.4-35.3L515.3,81.3
		C506.2,65.6,483.6,65.6,474.6,81.3z"/>
</g>
<g>
	<path class="st3" d="M600.9,312c-50-54.3-124.3-33-124.3-33s-75.3,7-108,96.3c-32.7,89.3,29.3,146.3,29.3,146.3
		c75.3,61,159.7,15,159.7,15l-6.7-15.3c-155,51.3-168-82-168-82c-4.3-93,60.3-128.7,60.3-128.7c98.7-49,146,21.3,146,21.3
		c41.7,67.7,0,119.7,0,119.7s-14.7,18.3-30.7,14s-10.3-35-10.3-35l15.7-81.3c-21-11.7-57.7-8-57.7-8c-56.7,7.3-77,58-77,58
		c-21.3,59.7,13,78.7,13,78.7c50,28,82.8-27.2,82.8-27.2l1.2-0.2c0.7,24.7,13.7,31,13.7,31c57.3,20.3,83-46.3,83-46.3
		S650.9,366.3,600.9,312z M524.6,419.7c0,0-22,57.7-63,41c0,0-22-9.7-6.7-56.7c0,0,9.7-32.7,51.7-41.7c0,0,16.7-2,28.3,3
		L524.6,419.7z"/>
	<path d="M622.5,417.1c0,0-11.6,50.2-3,58.1c0,0,2.5,1.7,3,4c0,0,2,5-1.2,4.1c0,0-1.4,1-3.6-0.9c-2.1-1.9-6.6-10-6.6-10
		s-12.8-2.9-15,5.5c-2.1,8.4,2,15.5,2,15.5s5.5,1.9,6.1,10.5c0.5,8.6-6.9,6.7-6.9,6.7s-9.8-5-8.2-13.1c1.6-8.1-15.1-22.9-15.1-22.9
		L622.5,417.1z"/>
	<path d="M390.3,502.4c29.1,62.3,16.5,77.7,16.5,77.7s-7.4,21.5,1.4,23.9c8.9,2.4,9.7-13.4,9.7-13.4s1.9-61.8,20.2-57"/>
</g>
</svg>
