<?xml version="1.0" standalone="no"?>
<!DOCTYPE svg PUBLIC "-//W3C//DTD SVG 20010904//EN"
 "http://www.w3.org/TR/2001/REC-SVG-20010904/DTD/svg10.dtd">
<svg version="1.0" xmlns="http://www.w3.org/2000/svg"
 width="390.000000pt" height="383.000000pt" viewBox="0 0 390.000000 383.000000"
 preserveAspectRatio="xMidYMid meet">

<g transform="translate(0.000000,383.000000) scale(0.100000,-0.100000)"
fill="#000000" stroke="none">
<path d="M1645 3800 c-244 -40 -491 -127 -683 -241 -481 -284 -803 -727 -918
-1267 -35 -161 -44 -463 -20 -632 32 -221 81 -380 177 -576 185 -381 484 -681
866 -873 385 -192 811 -250 1253 -171 513 93 975 404 1270 855 123 189 230
464 271 700 32 184 32 470 1 635 -72 385 -234 708 -490 981 -272 291 -629 487
-1042 576 -165 35 -509 41 -685 13z m660 -1968 c-3 -3 -11 0 -18 7 -9 10 -8
11 6 5 10 -3 15 -9 12 -12z m-52 -309 c-7 -2 -21 -2 -30 0 -10 3 -4 5 12 5 17
0 24 -2 18 -5z m324 -1079 c-3 -3 -12 -4 -19 -1 -8 3 -5 6 6 6 11 1 17 -2 13
-5z"/>
</g>
</svg>
