<?xml version="1.0" standalone="no"?>
<!DOCTYPE svg PUBLIC "-//W3C//DTD SVG 20010904//EN"
 "http://www.w3.org/TR/2001/REC-SVG-20010904/DTD/svg10.dtd">
<svg version="1.0" xmlns="http://www.w3.org/2000/svg"
 width="900.000000pt" height="960.000000pt" viewBox="0 0 900.000000 960.000000"
 preserveAspectRatio="xMidYMid meet">

<g transform="translate(0.000000,960.000000) scale(0.100000,-0.100000)"
fill="#000000" stroke="none">
<path d="M3995 9226 c-38 -17 -1032 -885 -1062 -927 -14 -19 -25 -54 -29 -90
l-7 -59 -47 0 c-26 0 -61 -5 -78 -11 -38 -13 -1040 -903 -1064 -945 -10 -18
-23 -59 -29 -92 l-11 -59 -81 -12 c-44 -6 -90 -17 -101 -25 -31 -20 -1054
-950 -1103 -1002 -51 -54 -71 -130 -54 -198 5 -22 112 -253 237 -511 124 -259
245 -510 269 -560 23 -49 103 -216 177 -370 317 -656 524 -1087 569 -1181 37
-79 58 -110 91 -136 131 -106 792 -598 803 -598 7 0 21 -13 32 -29 14 -23 362
-309 456 -376 16 -11 14 -29 -43 -304 -53 -256 -59 -297 -50 -337 6 -25 17
-56 26 -69 9 -13 192 -163 407 -332 215 -169 441 -348 502 -396 140 -113 197
-141 273 -135 54 4 84 20 572 312 283 170 531 318 550 329 19 11 48 32 63 46
23 21 39 26 80 27 50 0 71 12 580 318 499 300 529 320 548 359 20 42 21 42 70
39 48 -4 56 0 409 208 197 116 377 225 399 241 22 16 49 46 60 68 11 21 97
265 192 542 157 463 170 508 165 555 -5 47 -3 53 24 79 36 35 35 31 166 455
58 190 133 431 165 535 71 226 74 246 56 306 l-14 46 43 21 c51 25 65 49 103
176 16 50 103 330 194 621 91 292 168 544 172 562 10 48 -12 111 -53 153 -36
37 -1104 709 -1172 738 -75 31 -139 15 -455 -113 -159 -65 -316 -128 -347
-141 l-58 -23 0 302 c0 298 0 303 -24 354 -35 75 -64 110 -121 147 -154 102
-1008 655 -1054 683 -36 22 -67 33 -92 33 -54 0 -89 16 -89 40 0 43 -105 120
-565 418 -258 168 -484 311 -502 318 -41 18 -109 17 -148 0z m1280 -936 c3 -6
25 -19 49 -30 23 -10 49 -26 56 -35 7 -8 18 -15 25 -15 6 0 20 -9 30 -20 10
-11 24 -20 30 -20 7 0 18 -7 25 -15 7 -9 32 -25 55 -35 23 -10 48 -26 55 -35
7 -8 18 -15 25 -15 7 0 18 -7 25 -15 7 -9 32 -25 55 -35 23 -10 48 -26 55 -35
7 -8 18 -15 25 -15 6 0 20 -9 30 -20 10 -11 24 -20 30 -20 7 0 18 -7 25 -15 7
-9 32 -25 55 -35 23 -10 48 -26 55 -35 7 -8 18 -15 25 -15 6 0 20 -9 30 -20
10 -11 24 -20 30 -20 7 0 18 -7 25 -15 7 -9 29 -23 49 -32 46 -21 81 -52 81
-72 0 -17 -218 -241 -235 -241 -6 0 -60 -49 -120 -110 -60 -60 -114 -110 -120
-110 -6 0 -73 -63 -150 -140 -77 -77 -144 -140 -150 -140 -5 0 -47 -37 -92
-82 -76 -76 -86 -83 -123 -83 -31 0 -47 7 -73 33 -18 17 -38 32 -43 32 -6 0
-19 9 -29 20 -10 11 -23 20 -30 20 -7 0 -20 9 -30 20 -10 11 -23 20 -30 20 -6
0 -24 14 -40 30 -16 17 -34 30 -40 30 -7 0 -20 9 -30 20 -10 11 -23 20 -30 20
-7 0 -20 9 -30 20 -10 11 -23 20 -30 20 -7 0 -20 9 -30 20 -10 11 -23 20 -30
20 -6 0 -24 14 -40 30 -16 17 -34 30 -40 30 -7 0 -20 9 -30 20 -10 11 -23 20
-30 20 -7 0 -20 9 -30 20 -10 11 -23 20 -30 20 -6 0 -24 14 -40 30 -16 17 -34
30 -40 30 -7 0 -20 9 -30 20 -10 11 -23 20 -30 20 -7 0 -20 9 -30 20 -10 11
-23 20 -30 20 -6 0 -26 16 -45 35 l-34 35 74 75 c41 41 79 75 85 75 6 0 46 36
90 80 44 44 84 80 90 80 6 0 46 36 90 80 44 44 84 80 90 80 6 0 42 32 80 70
38 39 74 70 80 70 6 0 37 27 70 60 33 33 64 60 70 60 6 0 40 29 75 65 48 48
71 65 92 65 15 0 30 -5 33 -10z m2209 -1230 c23 -10 49 -26 56 -35 7 -8 18
-15 25 -15 6 0 20 -9 30 -20 10 -11 23 -20 30 -20 7 0 20 -9 30 -20 10 -11 23
-20 30 -20 7 0 20 -9 30 -20 10 -11 23 -20 30 -20 7 0 20 -9 30 -20 10 -11 24
-20 30 -20 7 0 18 -7 25 -15 7 -9 32 -25 55 -35 23 -10 48 -26 55 -35 7 -8 18
-15 25 -15 6 0 20 -9 30 -20 10 -11 23 -20 30 -20 7 0 20 -9 30 -20 10 -11 23
-20 30 -20 7 0 20 -9 30 -20 10 -11 24 -20 30 -20 7 0 18 -7 25 -15 7 -9 32
-25 55 -35 23 -10 48 -26 55 -35 7 -8 18 -15 24 -15 19 0 86 -74 78 -86 -8
-11 -62 -37 -102 -49 -14 -4 -29 -11 -35 -15 -5 -4 -28 -13 -50 -20 -22 -7
-53 -21 -70 -30 -16 -9 -48 -23 -70 -30 -22 -7 -44 -16 -50 -20 -5 -4 -28 -13
-50 -20 -22 -7 -44 -16 -50 -20 -5 -4 -28 -13 -50 -20 -22 -7 -53 -21 -70 -30
-93 -52 -184 -60 -220 -20 -10 11 -23 20 -30 20 -6 0 -24 14 -40 30 -16 17
-34 30 -40 30 -7 0 -20 9 -30 20 -10 11 -23 20 -30 20 -7 0 -20 9 -30 20 -10
11 -23 20 -30 20 -7 0 -20 9 -30 20 -10 11 -23 20 -30 20 -7 0 -20 9 -30 20
-10 11 -23 20 -30 20 -7 0 -20 9 -30 20 -10 11 -23 20 -30 20 -7 0 -20 9 -30
20 -10 11 -23 20 -30 20 -6 0 -24 14 -40 30 -16 17 -34 30 -40 30 -7 0 -20 9
-30 20 -10 11 -23 20 -30 20 -7 0 -20 9 -30 20 -10 11 -23 20 -30 20 -7 0 -20
9 -30 20 -10 11 -23 20 -30 20 -7 0 -20 9 -30 20 -10 11 -23 20 -30 20 -6 0
-28 18 -50 40 -33 34 -36 41 -25 55 15 19 72 45 150 70 30 10 60 21 65 25 6 4
42 18 80 30 39 12 75 26 80 30 6 4 42 18 80 30 39 12 75 26 80 30 6 4 27 13
48 20 22 7 51 18 65 26 38 19 86 17 136 -6z m-4664 -1075 c19 -19 39 -35 45
-35 6 0 24 -13 40 -30 16 -16 34 -30 40 -30 7 0 20 -9 30 -20 10 -11 23 -20
30 -20 6 0 24 -13 40 -30 16 -16 34 -30 40 -30 6 0 24 -13 40 -30 16 -16 34
-30 40 -30 6 0 24 -13 40 -30 16 -16 34 -30 40 -30 6 0 24 -13 40 -30 16 -16
34 -30 40 -30 6 0 24 -13 40 -30 16 -16 34 -30 40 -30 6 0 24 -13 40 -30 16
-16 34 -30 40 -30 6 0 24 -13 40 -30 16 -16 34 -30 40 -30 7 0 20 -9 30 -20
10 -11 23 -20 29 -20 7 0 32 -20 56 -45 l44 -45 -104 -105 c-58 -58 -109 -105
-115 -105 -6 0 -42 -31 -80 -70 -38 -38 -74 -70 -80 -70 -6 0 -46 -36 -90 -80
-44 -44 -84 -80 -90 -80 -6 0 -33 -22 -60 -50 -27 -27 -54 -50 -60 -50 -6 0
-51 -40 -100 -90 -49 -49 -94 -90 -100 -90 -6 0 -44 -34 -85 -75 -71 -72 -77
-75 -121 -75 -36 0 -51 5 -69 25 -13 14 -29 25 -35 25 -6 0 -24 14 -40 30 -16
17 -34 30 -40 30 -6 0 -29 18 -50 40 -21 22 -44 40 -50 40 -6 0 -29 18 -50 40
-21 22 -44 40 -50 40 -6 0 -29 18 -50 40 -21 22 -44 40 -50 40 -6 0 -29 18
-50 40 -21 22 -44 40 -50 40 -6 0 -24 14 -40 30 -16 17 -34 30 -40 30 -6 0
-29 18 -50 40 -21 22 -44 40 -50 40 -6 0 -29 18 -50 40 -21 22 -44 40 -49 40
-16 0 -96 83 -96 99 0 17 119 141 135 141 6 0 33 23 60 50 27 28 54 50 60 50
6 0 51 41 100 90 49 50 94 90 100 90 6 0 37 27 70 60 33 33 64 60 70 60 6 0
46 36 90 80 44 44 84 80 90 80 6 0 33 23 60 50 27 28 54 50 60 50 6 0 35 25
65 55 50 51 58 55 100 55 40 0 51 -5 80 -35z m-2257 -327 c33 -17 830 -620
844 -638 24 -30 324 -724 319 -737 -14 -36 -16 -34 -646 466 -102 81 -190 154
-196 162 -7 8 -94 178 -194 378 -143 284 -179 365 -169 372 18 11 16 11 42 -3z
m3447 -103 c13 -14 29 -25 35 -25 6 0 24 -13 40 -30 16 -16 34 -30 40 -30 7 0
20 -9 30 -20 10 -11 23 -20 30 -20 7 0 20 -9 30 -20 10 -11 23 -20 30 -20 6 0
24 -13 40 -30 16 -16 34 -30 40 -30 6 0 24 -13 40 -30 16 -16 34 -30 40 -30 7
0 20 -9 30 -20 10 -11 23 -20 30 -20 7 0 20 -9 30 -20 10 -11 23 -20 30 -20 6
0 24 -13 40 -30 16 -16 34 -30 40 -30 7 0 20 -9 30 -20 10 -11 23 -20 30 -20
6 0 24 -13 40 -30 16 -16 34 -30 40 -30 7 0 20 -9 30 -20 10 -11 23 -20 30
-20 6 0 24 -13 40 -30 16 -16 34 -30 40 -30 6 0 43 -33 82 -72 l72 -73 -20
-70 c-11 -38 -42 -155 -69 -260 -27 -104 -63 -237 -79 -295 -71 -259 -93 -341
-117 -435 -30 -118 -60 -161 -92 -132 -10 9 -23 17 -29 17 -5 0 -18 9 -28 20
-10 11 -23 20 -30 20 -6 0 -24 14 -40 30 -16 17 -34 30 -40 30 -6 0 -24 14
-40 30 -16 17 -34 30 -40 30 -6 0 -24 14 -40 30 -16 17 -34 30 -40 30 -7 0
-20 9 -30 20 -10 11 -23 20 -30 20 -6 0 -24 14 -40 30 -16 17 -34 30 -40 30
-6 0 -24 14 -40 30 -16 17 -34 30 -40 30 -6 0 -24 14 -40 30 -16 17 -34 30
-40 30 -6 0 -24 14 -40 30 -16 17 -34 30 -40 30 -6 0 -24 14 -40 30 -16 17
-34 30 -40 30 -6 0 -24 14 -40 30 -16 17 -34 30 -40 30 -6 0 -39 29 -74 64
l-64 65 11 43 c10 41 16 70 42 203 6 33 20 96 30 140 10 44 23 107 30 140 7
33 20 96 30 140 18 80 27 125 50 240 6 33 20 95 31 138 10 43 19 87 19 99 0
26 47 78 70 78 9 0 27 -11 40 -25z m2251 -369 c9 -20 -12 -104 -131 -517 -78
-272 -151 -525 -162 -564 -16 -53 -30 -78 -57 -103 -24 -22 -179 -103 -454
-234 -441 -211 -447 -214 -447 -152 0 51 283 1155 304 1187 18 27 75 53 471
219 248 103 453 187 458 188 4 0 12 -11 18 -24z m-5005 -678 c124 -101 303
-245 398 -321 112 -91 177 -151 190 -174 24 -48 256 -584 256 -594 0 -14 -32
-19 -53 -8 -28 16 -668 476 -689 497 -18 17 -378 753 -378 772 0 5 11 10 25
10 17 0 93 -55 251 -182z m1412 -175 c-10 -2 -28 -2 -40 0 -13 2 -5 4 17 4 22
1 32 -1 23 -4z m4892 -1040 c0 -28 -46 -179 -60 -198 -4 -5 -44 -122 -90 -259
-45 -137 -89 -260 -96 -275 -8 -14 -14 -31 -14 -36 0 -18 -123 -131 -162 -149
-20 -9 -40 -21 -43 -26 -3 -5 -34 -23 -69 -40 -35 -16 -69 -37 -76 -45 -7 -8
-18 -15 -25 -15 -7 0 -18 -7 -25 -15 -7 -9 -33 -25 -56 -35 -24 -11 -45 -24
-49 -30 -3 -5 -35 -23 -70 -40 -35 -17 -67 -35 -70 -40 -10 -16 -55 -12 -55 4
0 15 45 189 80 311 11 39 34 120 50 180 16 61 39 142 50 180 11 39 26 91 33
118 22 88 67 120 403 288 164 82 309 149 322 149 17 0 22 -6 22 -27z m-4774
-564 c170 -133 317 -249 327 -258 16 -16 15 -24 -14 -173 -18 -86 -37 -159
-44 -162 -10 -3 -347 252 -398 303 -17 17 -207 492 -207 519 0 6 6 12 14 12 7
0 152 -109 322 -241z m3778 63 c8 -25 -236 -887 -261 -920 -24 -33 -850 -534
-872 -530 -9 2 -17 15 -19 30 -4 36 273 994 298 1027 20 29 788 409 827 410
12 1 24 -7 27 -17z m-3264 -247 c7 -8 18 -15 24 -15 7 0 25 -13 41 -30 16 -16
34 -30 40 -30 6 0 24 -13 40 -30 16 -16 34 -30 40 -30 6 0 24 -13 40 -30 16
-16 34 -30 40 -30 7 0 20 -9 30 -20 10 -11 23 -20 30 -20 6 0 24 -13 40 -30
16 -16 34 -30 40 -30 6 0 24 -13 40 -30 16 -16 34 -30 40 -30 6 0 24 -13 40
-30 16 -16 34 -30 40 -30 6 0 24 -13 40 -30 16 -16 34 -30 40 -30 6 0 24 -13
40 -30 16 -16 34 -30 40 -30 6 0 24 -13 40 -30 16 -16 33 -30 39 -30 6 0 34
-23 63 -52 47 -47 53 -57 53 -95 0 -23 -5 -54 -11 -70 -6 -15 -24 -77 -40
-138 -16 -60 -47 -177 -69 -260 -22 -82 -53 -199 -70 -260 -17 -60 -42 -155
-56 -210 -26 -101 -52 -145 -85 -145 -9 0 -22 7 -29 15 -7 8 -18 15 -24 15 -7
0 -30 18 -51 40 -21 22 -44 40 -50 40 -6 0 -29 18 -50 40 -21 22 -44 40 -50
40 -6 0 -24 14 -40 30 -16 17 -34 30 -40 30 -6 0 -29 18 -50 40 -21 22 -44 40
-50 40 -6 0 -29 18 -50 40 -21 22 -44 40 -50 40 -6 0 -29 18 -50 40 -21 22
-44 40 -50 40 -6 0 -24 14 -40 30 -16 16 -34 30 -40 30 -6 0 -29 18 -50 40
-21 22 -44 40 -49 40 -6 0 -25 14 -43 32 -30 29 -33 38 -33 89 0 31 13 110 29
176 16 65 52 217 81 338 104 436 131 539 147 557 20 22 27 22 43 3z m3343
-492 c-7 -2 -19 -2 -25 0 -7 3 -2 5 12 5 14 0 19 -2 13 -5z m-2396 -255 c-3
-7 -5 -2 -5 12 0 14 2 19 5 13 2 -7 2 -19 0 -25z m-324 -1105 c-7 -2 -21 -2
-30 0 -10 3 -4 5 12 5 17 0 24 -2 18 -5z"/>
</g>
</svg>
